<?xml version="1.0" encoding="UTF-8"?>
<svg width="14px" height="14px" viewBox="0 0 14 14" version="1.1" xmlns="http://www.w3.org/2000/svg" xmlns:xlink="http://www.w3.org/1999/xlink">
    <title>percentage-sign-icon</title>
    <g id="Page-1" stroke="none" stroke-width="1" fill="none" fill-rule="evenodd">
        <g id="percentage-sign-icon" fill="#696969" fill-rule="nonzero">
            <path d="M3.20670391,5.24279835 C4.26256983,5.24279835 4.9273743,4.53223594 4.9273743,3.24554184 C4.9273743,2.01646091 4.26256983,1.24828532 3.20670391,1.24828532 C2.17039106,1.24828532 1.48603352,1.95884774 1.48603352,3.26474623 C1.48603352,4.57064472 2.17039106,5.24279835 3.20670391,5.24279835 Z M3.20670391,6.49108368 C1.54469274,6.49108368 0,5.14677641 0,3.28395062 C0,1.38271605 1.50558659,0 3.20670391,0 C4.94692737,0 6.41340782,1.38271605 6.41340782,3.24554184 C6.41340782,5.14677641 4.88826816,6.49108368 3.20670391,6.49108368 Z M1.97486034,13.8463649 L10.5195531,0.115226337 L12.0055866,0.115226337 L3.46089385,13.8463649 L1.97486034,13.8463649 Z M10.7932961,12.7517147 C11.849162,12.7517147 12.5139665,12.0411523 12.5139665,10.7544582 C12.5139665,9.52537723 11.849162,8.75720165 10.7932961,8.75720165 C9.75698324,8.75720165 9.0726257,9.46776406 9.0726257,10.7736626 C9.0726257,12.079561 9.75698324,12.7517147 10.7932961,12.7517147 Z M10.7932961,14 C9.13128492,14 7.58659218,12.6556927 7.58659218,10.7928669 C7.58659218,8.89163237 9.09217877,7.50891632 10.7932961,7.50891632 C12.5335196,7.50891632 14,8.89163237 14,10.7544582 C14,12.6556927 12.4748603,14 10.7932961,14 Z" id="%"></path>
        </g>
    </g>
</svg>